<?xml version="1.0" encoding="UTF-8"?>
<svg id="Layer_2" xmlns="http://www.w3.org/2000/svg" viewBox="0 0 622.49 540.32">
  <defs>
    <style>
      .cls-1, .cls-2 {
        fill: #211f1f;
      }

      .cls-1, .cls-3, .cls-4, .cls-5, .cls-6 {
        stroke: #211f1f;
        stroke-miterlimit: 10;
        stroke-width: 2px;
      }

      .cls-3, .cls-4 {
        fill: none;
      }

      .cls-3, .cls-6 {
        stroke-linecap: round;
      }

      .cls-5, .cls-6 {
        fill: #ffffff;
      }
    </style>
  </defs>
  <g id="Layer_16">
    <path class="cls-6" d="M199.01,336.02l-1.26,61.07c-.16,7.85.26,15.7,1.26,23.48l3.47,26.96c.56,4.37.84,8.77.84,13.18v35.55c0,6.68-5.33,12.15-12.01,12.31l-41.98,1.03c-6.01.15-10.54-4.64-10.08-10.64.49-6.51.04-10.76,4.74-16.47,4.01-4.88,16.04-7.03,25.75-8.29,2.55-.33,4.45-2.52,4.43-5.09l-.51-61.91-.53-65.52"/>
  </g>
  <g id="Layer_12">
    <path class="cls-6" d="M328.17,472.29v17.32c0,8.22-11.05,14.88-24.67,14.88h-60.06c-5.28,0-10.06-1.29-13.55-3.37-3.46-2.09-5.59-4.97-5.59-8.16,0-11.42,15.33-20.66,34.28-20.66h28.66"/>
  </g>
  <g id="Layer_3">
    <path class="cls-6" d="M616.39,531.6c-3.73,2.4-8.04,3.76-12.43,4.33-24.19,3.07-47.41,2.09-68.7-3.25-34.16-8.55-81.59-27.91-120.48-71.74-1.73-1.95-4.77-1.79-6.38.26-7.17,9.19-16.88,17.5-28.64,25.58-2.77,3.23-7.29,7.22-9.73,9.29-1.05.91-2.14,1.76-3.28,2.55l-1.65,1.17v21.27c0,10.08-13.57,18.27-30.28,18.27h-73.72c-6.48,0-12.35-1.58-16.63-4.14-4.24-2.56-6.86-6.1-6.86-10.01,0-14.02,18.82-25.36,42.08-25.36h35.18c-4.19-1.2-8.42-2.53-12.63-4-46.85-16.25-93.05-48.65-92.04-93.2-8.06-10.38-16-21.4-23.75-32.95-.38-.57-.76-1.13-1.14-1.7-1.04-1.54-3.42-.82-3.47,1.02l-.66,30.3c-.35,16.45-2.87,32.78-7.48,48.59l-13.11,50.98c-1.01,3.94-1.52,7.99-1.52,12.06v10.14c0,10.08-8.18,18.27-18.27,18.27h-44.46c-3.91,0-7.45-1.58-10.03-4.14-2.56-2.56-4.14-6.1-4.14-10.01,0-14.02,11.36-25.36,25.38-25.36h12.09c2.3,0,4.29-1.6,4.79-3.85l10.27-46.72c4.13-16.38,6.03-33.24,5.66-50.13l-1.8-82.49c-.29-13.1-3.53-25.99-9.65-37.6-11.06-20.94-24.34-38.42-26.11-56.72,107.85-65.99,234.03,20.49,252.82,83.51,10.29,34.51,33.34,58.4,58.76,74.83,2.81,7.27,4.87,14.09,6.26,20.52,4.36,20.24,15.15,38.57,30.34,52.64,25.23,23.36,61.48,45.25,111.47,51.31,18.88,2.28,38.83,4.64,54.47,13.17,1.11.6,2.12,1.38,2.94,2.34,1.89,2.28,3.54,6.43-3.47,10.95Z"/>
    <path class="cls-2" d="M209.18,402.59c.6-14.23,5.05-28.7,14.09-39.84,4.59-5.49,10.24-10.07,16.49-13.53,31.49-17.07,71.22-11.47,102.55,3.25-32.46-14.87-75.31-20.02-106.37.63-10.36,7.14-17.42,17.03-21.15,29.02-2.2,6.63-3.49,13.56-3.59,20.52-.02,1.28-2.01,1.32-2-.04h0Z"/>
    <path class="cls-2" d="M378.94,486.2c4.76-5.91,9.33-12.07,11.25-19.54-.66,3.76-1.95,7.42-3.68,10.86-1.72,3.45-3.85,6.67-5.94,9.85-.3.46-.92.59-1.39.29-.49-.32-.6-1-.24-1.46h0Z"/>
    <path class="cls-6" d="M617.15,267.69c-5.9,24.76-27.07,89.5-94.7,141.63-5.56,4.3-12.69,6.06-19.61,4.81-18-3.2-55.25-11.97-88.47-33.47-25.43-16.43-48.48-40.32-58.77-74.83-18.79-63.02-144.97-149.51-252.82-83.52-3.21-2.07-3.4-5.11-4.47-8.44l31.58-14.99c30.14-14.29,52.85-40.62,62.57-72.52,0,0,33.3-6.26,76.34-6.26,59.14,0,136.71,11.83,171.6,67.97,49.78,80.1,139.28,75.18,168.95,71.04,4.88-.67,8.94,3.78,7.8,8.58Z"/>
  </g>
  <g id="Layer_4">
    <path class="cls-3" d="M57.93,144.99c28.62-.25,42.79-15.22,42.79-15.22"/>
  </g>
  <g id="Layer_2-2" data-name="Layer_2">
    <path class="cls-1" d="M16.73,93.57c-4.69,6.01-11.58,1.88-12.26,1.45-.04-.32-.06-.5-.06-.5-1.94-3.86-2.15-5.12-2.15-5.12l-.31-1.59c-.27-1.39-.47-2.8-.59-4.21l-.36-4.17c-.29-4.2,8.86-7.43,12.13-8.45h.01c.2-.03,2.43-.21,7.48,5.35,5.32,5.84,1.03,10.91-3.9,17.23Z"/>
    <path class="cls-5" d="M160.58,60.93c3.68-2.18,5.64-9.35,5.64-9.35.61,1.18,2.35,4.13,6.6,9.19,3.38,4.02,6.38,4.16,8.42,3.43,1.56-.56,2.72-1.87,3.18-3.45.54-1.88,1.82-5.36,4.74-10.08,2.44-3.96,2.43-6.76,1.91-8.49-.34-1.12-1.19-2.02-2.29-2.43-2.44-.92-9.58-5.06-25.52-23.64-20.7-24.12-51.22-12.12-51.22-12.12l-20.62,5.86-13.66,2.84c-5.49,1.15-13.07,3.88-17.68,7.07-4.96,3.44-11.22,8.44-15.94,14.41-2.3,2.91-6.33,6.89-9.17,9.27-5.19,4.36-10.27,11.5-7.21,21.82,0,0-6.63,1.25-13.01,5.25,0,0-.6.16-1.58.47.28-.04,7-.74,10.43,7.46,2.1,5.03-5.43,17.23-11.17,19.37-4.95,1.85-8.82-6.57-9.77-7.17.47,3.87,1.57,36.69,10.06,43.41,0,0,16.13,13.88,33.84,12.89,3.59-.2,7.74-2.21,11.35-1.96h.02c.65.05,1.28.17,1.9.39,2.39.86,4.84,1.97,6.66,3.38,1.23.95,1.94,2.43,1.83,3.98-.19,2.94-.13,9.03,2.45,16.4,0,0,3.21,11.18,22.85,40.41.89,1.32,2.98,3.74,4.69,4.32l31.58-14.99c30.14-14.29,52.85-40.62,62.57-72.52,0,0-3.18-45.17-31.88-65.43ZM45.18,53.9s-.19.11-.52.27c-.58.62-1.41,1-2.32,1-.05,0-.11,0-.16,0-2.1.64-5.03,1.06-7.82-.15-1.23-.53-1.83-1.94-1.33-3.18.84-2.05,3.07-4.67,8.97-3.36,9.22,2.05,3.18,5.43,3.18,5.43ZM90.88,52.5s-.99.59-2.56,1.18c-.01,0-.02.01-.02.01-.29.15-.6.25-.93.31-.01,0-.02.01-.03.01-2.63.83-6.38,1.42-9.95-.12-1.53-.67-2.28-2.43-1.65-3.97,1.04-2.56,3.82-5.82,11.18-4.18,11.49,2.55,3.96,6.76,3.96,6.76Z"/>
    <path class="cls-4" d="M45.18,53.9s-.19.11-.52.27c-.58.62-1.41,1-2.32,1-.05,0-.11,0-.16,0-2.1.64-5.03,1.06-7.82-.15-1.23-.53-1.83-1.94-1.33-3.18.84-2.05,3.07-4.67,8.97-3.36,9.22,2.05,3.18,5.43,3.18,5.43Z"/>
    <path class="cls-4" d="M90.88,52.5s-.99.59-2.56,1.18c-.01,0-.02.01-.02.01-.29.15-.6.25-.93.31-.01,0-.02.01-.03.01-2.63.83-6.38,1.42-9.95-.12-1.53-.67-2.28-2.43-1.65-3.97,1.04-2.56,3.82-5.82,11.18-4.18,11.49,2.55,3.96,6.76,3.96,6.76Z"/>
    <path class="cls-2" d="M90.6,50.07c0,1.59-.93,2.97-2.28,3.61-.01,0-.02.01-.02.01-.29.15-.6.25-.93.31-.01,0-.02.01-.03.01-.24.05-.49.07-.75.07-2.21,0-4-1.8-4-4.01s1.79-4,4-4,4.01,1.79,4.01,4Z"/>
  </g>
  <g id="Layer_10">
    <path class="cls-5" d="M77.76,12.69c-5.49,1.15-13.07,3.88-17.68,7.07-4.96,3.44-11.22,8.44-15.94,14.41-2.3,2.91-6.33,6.89-9.17,9.27-2-3.24-2.55-8.56-2.55-8.56,0,0-.67,6.3-6.31,12.6-5.63,6.3-8.11,1.91-8.11,1.91,0,0-1.34-4.01,3.44-21.29C26.21,10.81,41.11,7.66,41.11,7.66c0,0,8.01-.95,24.25-.95,9.35,0,12.4,5.98,12.4,5.98Z"/>
  </g>
  <g id="Layer_9">
    <path class="cls-3" d="M90.88,52.5s-.99.59-2.56,1.18c-.01,0-.02.01-.02.01-.29.1-.6.21-.93.31-.01,0-.02.01-.03.01-2.63.83-6.38,1.42-9.95-.12-1.53-.67-2.28-2.43-1.65-3.97,1.04-2.56,3.82-5.82,11.18-4.18,11.49,2.55,3.96,6.76,3.96,6.76Z"/>
    <path class="cls-2" d="M45.55,51.95c0,.86-.34,1.64-.89,2.22-.58.62-1.41,1-2.32,1-.05,0-.11,0-.16,0-1.71-.08-3.06-1.48-3.06-3.21s1.44-3.21,3.22-3.21,3.21,1.44,3.21,3.21Z"/>
    <path class="cls-3" d="M45.18,53.9s-.19.11-.52.27c-.52.26-1.38.66-2.48.99-2.1.64-5.03,1.06-7.82-.15-1.23-.53-1.83-1.94-1.33-3.18.84-2.05,3.07-4.67,8.97-3.36,9.22,2.05,3.18,5.43,3.18,5.43Z"/>
  </g>
  <g id="Layer_11">
    <path class="cls-3" d="M27.76,65.26s5.49,1.42,15.61-7.21"/>
  </g>
  <g id="Layer_7">
    <path class="cls-4" d="M166.22,51.58c-.2-.41-.28-.6-.28-.6"/>
    <path class="cls-3" d="M165.94,50.98s-6.72-18.78-9.36-22.45"/>
  </g>
  <g id="Layer_5">
    <path class="cls-4" d="M13.17,70.98h-.02"/>
    <path class="cls-2" d="M94.33,111.06c-1.01,14.45-12.61,27.75-27.58,28.31-6.07.28-12.09-1.27-17.31-4.2,0,0-3-1.61-3-1.61-8.02-4.23-16.12-8.36-24.54-11.74-3.03-1.06-6.33-2.61-9.53-2.28-.36.08-.56.19-.77.45-1.61,2.38-3.13,5.11-3.28,8.02.01.12-.09.22-.2.22-.11,0-.19-.09-.2-.19-.05-1.21.2-2.34.52-3.46.65-1.99,1.42-3.88,2.72-5.55,1.32-1.03,3.17-.66,4.58-.49,2.31.39,4.53,1.04,6.71,1.76,8.7,2.9,17.02,6.77,25.3,10.67,3.87,1.94,8.01,3.9,12.33,4.38,10.69,1.39,21.6-3.73,27.79-12.48,2.54-3.56,4.64-7.57,6.07-11.88.04-.23.43-.17.39.06h0Z"/>
  </g>
</svg>